<svg id="Слой_1" data-name="Слой 1" xmlns="http://www.w3.org/2000/svg" viewBox="0 0 64 32"><defs><style>.cls-1{fill:#fff;}.cls-1,.cls-2{fill-rule:evenodd;}.cls-2{fill:#ab2325;}</style></defs><title>logo</title><path class="cls-1" d="M57.55,4.48a1,1,0,0,0-.29.79v5.67l1.2-.08a2.07,2.07,0,0,0,1.08-.49,2.48,2.48,0,0,0,.7-1.15,6.25,6.25,0,0,0,.23-1.8A4.51,4.51,0,0,0,60,5a1.65,1.65,0,0,0-1.5-.8A1.41,1.41,0,0,0,57.55,4.48Zm-4.71-.24H51.55a2.19,2.19,0,0,0-1.22.17,1,1,0,0,0-.32.84V17.42c0,.52.14.81.41.89a4,4,0,0,0,1.1.1h.68l.89,0a1.13,1.13,0,0,0,.75-.15c.13-.12.2-.45.2-1V6.19a7.43,7.43,0,0,0-.1-1.68C53.87,4.33,53.5,4.24,52.84,4.24Zm-1-.37h.93l6.15,0a6.72,6.72,0,0,1,3.39.68,3.11,3.11,0,0,1,1.59,2.76A3.89,3.89,0,0,1,63.59,9a3.74,3.74,0,0,1-1,1.32,5.62,5.62,0,0,1-3.66,1.13l-1.63-.16v5.54a3.28,3.28,0,0,0,.16,1.4q.15.19,1.2.24c.38,0,.57,0,.57.19s-.11.17-.34.17l-6.77,0H44.89c-.2,0-.3-.06-.3-.17s.1-.19.3-.19h.73c.67,0,1.07-.1,1.2-.35l.08-1.29V5.12c-.47,1.19-1.08,3.09-1.84,5.68l-1.87,6.6c-.23.8-.41,1.21-.56,1.21s-.31-.21-.43-.62l-1.38-4.13L38.13,5.53l0,12.33a.5.5,0,0,0,.19.32,1.69,1.69,0,0,0,1.1.25q.78,0,.78.24c0,.09-.11.14-.32.14L38,18.73l-2.63,0H29.74c-.32,0-.47-.06-.47-.18s0-.17.12-.19l.76,0c.23,0,.35-.07.35-.2l-1.18-1.74L26.16,12l-.4-.45V17a2.43,2.43,0,0,0,.16,1.15,2,2,0,0,0,1.07.21c.36,0,.54.09.54.23s-.13.18-.39.18h-6c-.23,0-.35-.06-.35-.18s.24-.21.73-.23a1.47,1.47,0,0,0,.88-.18,1.78,1.78,0,0,0,.15-.95V4.84a.5.5,0,0,0-.14-.41,2,2,0,0,0-.93-.13c-.41,0-.62-.07-.62-.21s.1-.17.3-.17l3.3.06,2.73-.06c.17,0,.25.06.25.18s-.16.17-.5.18a2.59,2.59,0,0,0-1,.16c-.1.08-.16.33-.16.77v5.67q.58-.47,3.9-4.23c1-1.12,1.49-1.84,1.49-2.14,0-.09-.07-.15-.2-.17l-1.09,0c-.21,0-.31-.06-.31-.2s.17-.2.51-.18h3.7c.21,0,.31.06.31.18s-.11.23-.35.23a3.79,3.79,0,0,0-1.08.1,2.05,2.05,0,0,0-.7.51c-1.34,1.4-2.73,2.94-4.18,4.64l5.45,7a12.55,12.55,0,0,0,1.27,1.55,1.27,1.27,0,0,0,.76.24l.63,0h.76c.44-.06.69-.22.76-.5l.08-1.07V6.57a5.32,5.32,0,0,0-.22-2c-.13-.18-.64-.28-1.53-.28-.23,0-.35-.06-.35-.2s.13-.2.37-.19h4.63l.24,0,3.11,9.9,2.92-9.92Z"/><path class="cls-2" d="M42.54,24.1a.54.54,0,0,0-.37.13,1,1,0,0,0-.29.4A3.27,3.27,0,0,0,41.63,26,3.4,3.4,0,0,0,42.07,28a.6.6,0,0,0,.53.27.56.56,0,0,0,.56-.38,4.12,4.12,0,0,0,.26-1.59,4.24,4.24,0,0,0-.29-1.79A.61.61,0,0,0,42.54,24.1Z"/><path class="cls-2" d="M58.18,24.16a.4.4,0,0,0-.26.08.29.29,0,0,0-.08.22v1.6l.34,0a.73.73,0,0,0,.31-.14.87.87,0,0,0,.19-.33,1.83,1.83,0,0,0,.06-.51,1.22,1.22,0,0,0-.14-.67A.46.46,0,0,0,58.18,24.16Z"/><path class="cls-2" d="M34.94,25c0-.52-.21-.78-.62-.78-.14,0-.22,0-.25.13A3.51,3.51,0,0,0,34,25v1a1.16,1.16,0,0,0,.4-.06.62.62,0,0,0,.28-.18A1.12,1.12,0,0,0,34.94,25Z"/><path class="cls-2" d="M20.76,22.05v8.4H64v-8.4Zm7.7,5c-.18,0-.27,0-.29.12v.73a3.33,3.33,0,0,1-.7.36,1.86,1.86,0,0,1-.68.13,1.9,1.9,0,0,1-1.44-.61,2.08,2.08,0,0,1-.58-1.51,2.46,2.46,0,0,1,.15-.88,2.06,2.06,0,0,1,.44-.72,2,2,0,0,1,1.5-.64,1.71,1.71,0,0,1,.76.19l.2.06c.07,0,.12,0,.17-.14s0-.08.07-.08,0,0,0,.06,0,.14,0,.24l0,1c0,.07,0,.11-.06.11s-.1-.08-.12-.24a1.69,1.69,0,0,0-.13-.48,1.14,1.14,0,0,0-.22-.37.74.74,0,0,0-.25-.17.82.82,0,0,0-.33-.05c-.76,0-1.15.68-1.15,2a3,3,0,0,0,.38,1.76.74.74,0,0,0,.64.32.43.43,0,0,0,.37-.16.69.69,0,0,0,.13-.47,1.62,1.62,0,0,0,0-.53s-.1-.06-.21-.06H27c-.09,0-.13,0-.13-.05s0-.06.1-.06h1.69c.06,0,.08,0,.08.05S28.61,27,28.46,27Zm7.91,1.27a.55.55,0,0,1-.34.09,1.31,1.31,0,0,1-.5-.09,1.05,1.05,0,0,1-.39-.27,1,1,0,0,1-.3-.58l-.06-.5a1.41,1.41,0,0,0-.22-.67.5.5,0,0,0-.21-.13.75.75,0,0,0-.31-.05V28a.16.16,0,0,0,.09.15,1,1,0,0,0,.32,0c.1,0,.14,0,.14,0s0,.05-.07.05H32.69c-.06,0-.09,0-.09-.05s.09,0,.25,0,.22-.05.25-.11V24.3a.13.13,0,0,0-.07-.09.94.94,0,0,0-.28,0c-.09,0-.14,0-.14-.07s0,0,.06-.05h1.51a7.1,7.1,0,0,1,.72,0,1.7,1.7,0,0,1,.44.1.83.83,0,0,1,.39.32.78.78,0,0,1,.15.47.84.84,0,0,1-.15.5,1,1,0,0,1-.46.36,2.81,2.81,0,0,1-.79.18v0a1.47,1.47,0,0,1,1,.34,1.75,1.75,0,0,1,.36,1,1.66,1.66,0,0,0,.15.69.26.26,0,0,0,.21.13c.06,0,.09,0,.09,0l-.07-.06a.16.16,0,0,1-.07-.13c0-.11.06-.16.18-.16s.18.07.18.2A.3.3,0,0,1,36.37,28.28Zm7.55-.57a1.84,1.84,0,0,1-2.78,0,2.37,2.37,0,0,1-.43-.71,2.23,2.23,0,0,1-.14-.83,2.17,2.17,0,0,1,.57-1.54,1.93,1.93,0,0,1,.64-.47,2,2,0,0,1,.78-.16,1.74,1.74,0,0,1,1.37.63,2,2,0,0,1,.42.7,2.57,2.57,0,0,1,.14.85A2.22,2.22,0,0,1,43.92,27.71Zm8.34-3.55c-.17,0-.27,0-.31.08l0,.1v2.59A1.5,1.5,0,0,1,51.58,28a1.32,1.32,0,0,1-1,.37,1.77,1.77,0,0,1-.63-.11,1.15,1.15,0,0,1-.46-.33,1.66,1.66,0,0,1-.3-1.14V24.46a.38.38,0,0,0,0-.24,1,1,0,0,0-.39-.06s-.06,0-.06-.05,0-.06.1-.06h1.7c.08,0,.11,0,.11.06s-.06.06-.19.06-.27,0-.28.1l0,.12,0,2.91a1,1,0,0,0,.07.33.7.7,0,0,0,.15.24.63.63,0,0,0,.26.16.81.81,0,0,0,.33.06,1,1,0,0,0,.35-.07.5.5,0,0,0,.25-.2,2,2,0,0,0,.24-1.16V24.42q0-.17-.09-.21a.6.6,0,0,0-.23,0c-.15,0-.22,0-.22-.08s0-.05.09-.05l.53,0,.1,0h.34q.18,0,.18.06S52.4,24.15,52.26,24.16Zm7.36,1.34a1,1,0,0,1-.29.37,1.59,1.59,0,0,1-1,.32l-.46,0v1.56a1,1,0,0,0,0,.39s.15.06.34.07.16,0,.16,0,0,.05-.09.05H56.45l0,0s0-.05.1-.05a.81.81,0,0,0,.36-.05.5.5,0,0,0,0-.28V24.72a1.92,1.92,0,0,0,0-.47c0-.06-.12-.08-.31-.08s-.16,0-.16-.06,0-.05.15-.05h1.74a1.85,1.85,0,0,1,1,.19.88.88,0,0,1,.45.78A1,1,0,0,1,59.62,25.5Z"/><path class="cls-1" d="M6.73,4a21.83,21.83,0,0,1,5.95,4.26,14.12,14.12,0,0,1,3.1,4.8,13.7,13.7,0,0,1,.81,3.28,15.91,15.91,0,0,1,.12,1.94c0,.44-.05.88-.09,1.34a25.85,25.85,0,0,0-5.41-7.09A29.17,29.17,0,0,0,5.09,8.73C2.72,7.6,1.09,5.24.22,1.63l0-.08.66.15H.91A31.64,31.64,0,0,1,5.26,3.25C5.75,3.47,6.24,3.7,6.73,4Z"/><path class="cls-1" d="M6.73,18q7.49,3.81,8.75,11.18c.08,0-.1.41-.54,1.19a9.17,9.17,0,0,0-1.47-1.82c-.73-.7-1.48-1.37-2.26-2A29.19,29.19,0,0,0,5.09,22.8Q1.51,21.11.2,15.62l.71.17a33,33,0,0,1,4.35,1.53C5.75,17.54,6.24,17.78,6.73,18Z"/><path class="cls-1" d="M.7,8.7a30.73,30.73,0,0,1,4.35,1.54c.5.22,1,.45,1.48.69q8.86,4.53,9.86,12.34a12.85,12.85,0,0,1,.11,1.37v.58a.66.66,0,0,0,0,.14c0,.22,0,.45,0,.67l0,.32v0a1.1,1.1,0,0,0,0,.18l-.06-.14-.28-.55c-.22-.47-.57-1.14-1-2a9.33,9.33,0,0,0-1.78-2.37c-.73-.7-1.48-1.37-2.26-2a29.72,29.72,0,0,0-6.12-3.76Q1.31,14,0,8.53Z"/></svg>