<svg xmlns="http://www.w3.org/2000/svg" viewBox="0 0 32 32"><defs><style>.cls-1{fill:#fff;}.cls-2{fill:#031746;}</style></defs><title>facebook</title><g id="ELIPSE"><circle class="cls-1" cx="15.98" cy="16.04" r="15.98"/></g><g id="FACEBOOK"><path class="cls-2" d="M20,7.93H17.94a3.68,3.68,0,0,0-3.87,4v1.83H12a.33.33,0,0,0-.33.33v2.66a.33.33,0,0,0,.33.33h2.1v6.69a.33.33,0,0,0,.33.33h2.75a.32.32,0,0,0,.32-.33V17.05h2.47a.32.32,0,0,0,.32-.33V14.06a.34.34,0,0,0-.33-.33H17.47V12.18c0-.75.18-1.12,1.15-1.12H20a.32.32,0,0,0,.33-.32V8.26A.33.33,0,0,0,20,7.93Z"/></g></svg>