<svg xmlns="http://www.w3.org/2000/svg" viewBox="0 0 32 32"><defs><style>.cls-1{fill:#fff;}.cls-2{fill:#051746;}</style></defs><title>instagram</title><g id="ELIPSE"><circle class="cls-1" cx="15.98" cy="16.04" r="15.98"/></g><g id="INSTAGRAM"><path class="cls-2" d="M19.46,8.22h-7A4.28,4.28,0,0,0,8.22,12.5v7a4.28,4.28,0,0,0,4.28,4.28h7a4.28,4.28,0,0,0,4.28-4.28v-7A4.28,4.28,0,0,0,19.46,8.22Zm2.91,11.24a2.92,2.92,0,0,1-2.91,2.91h-7a2.91,2.91,0,0,1-2.9-2.91v-7a2.9,2.9,0,0,1,2.9-2.9h7a2.91,2.91,0,0,1,2.91,2.9v7Z"/><path class="cls-2" d="M16,12a4,4,0,1,0,4,4A4,4,0,0,0,16,12Zm0,6.62A2.62,2.62,0,1,1,18.6,16,2.62,2.62,0,0,1,16,18.6Z"/><path class="cls-2" d="M20.15,10.82a1,1,0,0,0-.71.29,1,1,0,0,0,0,1.43,1,1,0,0,0,1.42,0,1,1,0,0,0,0-1.43A1,1,0,0,0,20.15,10.82Z"/></g></svg>