<svg id="Слой_1" data-name="Слой 1" xmlns="http://www.w3.org/2000/svg" viewBox="0 0 150 100"><defs><style>.cls-1{fill:#fff;fill-rule:evenodd;}</style></defs><title>logo-footer</title><path class="cls-1" d="M127.62,6.65a3.44,3.44,0,0,0-1,2.72V29.06l4.17-.26a7.6,7.6,0,0,0,3.76-1.71,8.68,8.68,0,0,0,2.41-4,21.88,21.88,0,0,0,.79-6.28q0-5.55-1.74-8.31a5.78,5.78,0,0,0-5.22-2.78A4.68,4.68,0,0,0,127.62,6.65ZM111.27,5.8h-4.5c-2.1-.09-3.51.1-4.24.58a3.39,3.39,0,0,0-1.09,2.92V51.54c0,1.81.48,2.85,1.43,3.11a14.09,14.09,0,0,0,3.8.34l.38,0c.58,0,1.24,0,2,0s1.76.06,3.07.07a4.31,4.31,0,0,0,2.62-.53q.69-.63.69-3.48V12.55a26.32,26.32,0,0,0-.35-5.8C114.82,6.12,113.56,5.8,111.27,5.8ZM107.9,4.52q1.56,0,3.21,0l21.36-.07q7.86,0,11.76,2.37a10.76,10.76,0,0,1,5.52,9.56,13.8,13.8,0,0,1-1.17,5.81A12.87,12.87,0,0,1,145,26.76q-4.78,3.93-12.71,3.93l-5.66-.54V49.36c0,2.75.18,4.36.55,4.85s1.75.74,4.16.85c1.34-.06,2,.16,2,.65s-.4.61-1.2.61l-23.5.08h-25c-.7,0-1.05-.21-1.05-.62s.35-.65,1.05-.65H86.2c2.3,0,3.69-.36,4.17-1.21l.26-4.49V8.86q-2.44,6.21-6.4,19.73L77.75,51.47c-.79,2.8-1.43,4.2-1.94,4.2S74.75,55,74.3,53.55L69.52,39.2,60.18,10.28l.07,42.79a1.68,1.68,0,0,0,.65,1.11,5.82,5.82,0,0,0,3.84.88c1.8-.06,2.7.22,2.7.83,0,.33-.37.51-1.12.51l-6.65-.29-9.12.15H31.05c-1.09,0-1.63-.22-1.63-.66s.14-.57.42-.63l2.64-.14c.8,0,1.21-.24,1.21-.72l-4.1-6L18.64,32.79,17.25,31.2V50.08c0,2.24.18,3.57.55,4s1.6.67,3.72.76c1.25.05,1.87.31,1.87.77s-.45.66-1.36.66H1.15q-1.2,0-1.2-.66c0-.46.84-.72,2.52-.77s2.69-.26,3.06-.65.54-1.48.54-3.29v-43a1.67,1.67,0,0,0-.51-1.43A7.36,7.36,0,0,0,2.36,6Q.2,6,.2,5.29c0-.41.34-.61,1-.61l11.46.21,9.49-.21c.59,0,.88.21.88.65s-.58.57-1.74.61a9.47,9.47,0,0,0-3.51.55c-.37.27-.55,1.16-.55,2.67V28.87q2-1.64,13.54-14.7,5.15-5.85,5.15-7.42c0-.34-.23-.54-.69-.61L31.46,6c-.71,0-1.06-.23-1.06-.68s.59-.71,1.78-.65H45c.71,0,1.07.21,1.07.65s-.4.77-1.21.77a13.53,13.53,0,0,0-3.76.35,7.52,7.52,0,0,0-2.45,1.8q-6.95,7.26-14.48,16.1L43.09,48.77a42.73,42.73,0,0,0,4.43,5.38,4.39,4.39,0,0,0,2.64.86c1.06,0,1.78.05,2.18.1l2.62,0c1.54-.2,2.42-.77,2.66-1.72l.26-3.73V13.87c0-4-.27-6.33-.74-7s-2.23-1-5.33-1c-.79,0-1.19-.23-1.19-.68s.42-.72,1.26-.67H68l.85.07L79.61,39,89.72,4.52Z"/><path class="cls-1" d="M75.48,74.75a2,2,0,0,0-1.29.45,3.79,3.79,0,0,0-1,1.38,12,12,0,0,0-.84,4.92q0,4.44,1.51,6.66a2.1,2.1,0,0,0,1.85.93,2,2,0,0,0,2-1.31,14.59,14.59,0,0,0,.88-5.54,14.67,14.67,0,0,0-1-6.19A2.16,2.16,0,0,0,75.48,74.75Z"/><path class="cls-1" d="M129.78,75a1.34,1.34,0,0,0-.88.26,1,1,0,0,0-.3.78v5.55l1.18-.07a2.15,2.15,0,0,0,1.07-.49,2.47,2.47,0,0,0,.67-1.13,6,6,0,0,0,.23-1.77,4.43,4.43,0,0,0-.49-2.34A1.62,1.62,0,0,0,129.78,75Z"/><path class="cls-1" d="M49.11,77.72c0-1.81-.72-2.71-2.17-2.71-.46,0-.75.15-.86.46a12.63,12.63,0,0,0-.1,2.3v3.5a4.39,4.39,0,0,0,1.4-.19,2.15,2.15,0,0,0,1-.64A4,4,0,0,0,49.11,77.72Z"/><path class="cls-1" d="M-.13,67.63V96.81H150V67.63ZM26.62,84.86c-.62,0-.95.13-1,.42l-.05,2.51a10.44,10.44,0,0,1-2.45,1.27,6.76,6.76,0,0,1-2.33.44,6.66,6.66,0,0,1-5-2.11,7.33,7.33,0,0,1-2-5.26,8.85,8.85,0,0,1,.51-3.06,7.58,7.58,0,0,1,1.55-2.49A6.79,6.79,0,0,1,21,74.36a6.26,6.26,0,0,1,2.66.65l.7.21c.22,0,.41-.16.56-.49s.16-.26.25-.26.14.07.14.21,0,.49-.05.84l.05,3.41c0,.27-.07.41-.21.41s-.33-.28-.4-.85a6.68,6.68,0,0,0-.44-1.67,4.2,4.2,0,0,0-.78-1.26,2.24,2.24,0,0,0-.86-.6,3.17,3.17,0,0,0-1.14-.19q-4,0-4,7.08,0,4.41,1.32,6.14A2.61,2.61,0,0,0,21,89.09a1.57,1.57,0,0,0,1.3-.54,2.62,2.62,0,0,0,.44-1.65,5.77,5.77,0,0,0-.14-1.85c-.09-.13-.33-.19-.72-.19h-.52c-.31,0-.46-.07-.46-.2s.12-.19.37-.19l5.87,0c.18,0,.26.06.26.19S27.15,84.87,26.62,84.86Zm27.45,4.41a1.94,1.94,0,0,1-1.17.3,4.59,4.59,0,0,1-1.75-.32,3.92,3.92,0,0,1-1.36-.91,3.56,3.56,0,0,1-1-2l-.2-1.74a4.86,4.86,0,0,0-.77-2.31,1.75,1.75,0,0,0-.74-.47A3.17,3.17,0,0,0,46,81.62l0,6.61a.49.49,0,0,0,.29.49,2.87,2.87,0,0,0,1.13.15c.33,0,.49.06.49.19s-.08.16-.24.16H41.3c-.2,0-.3-.06-.3-.16s.29-.17.86-.19.77-.16.85-.36l0-13.08a.38.38,0,0,0-.27-.29,2.46,2.46,0,0,0-1-.13c-.31,0-.47-.07-.47-.21s.06-.15.19-.17l5.26,0a24.71,24.71,0,0,1,2.48.1,6.56,6.56,0,0,1,1.54.35,3.19,3.19,0,0,1,1.36,1.09,3,3,0,0,1,.49,1.64,3.08,3.08,0,0,1-.51,1.76,3.8,3.8,0,0,1-1.58,1.23,9.73,9.73,0,0,1-2.76.63l0,.14a5,5,0,0,1,3.34,1.2,5.55,5.55,0,0,1,1.25,3.44,5.24,5.24,0,0,0,.53,2.39,1,1,0,0,0,.73.48c.22,0,.32-.06.32-.18l-.24-.23a.46.46,0,0,1-.25-.42c0-.38.21-.58.63-.58s.64.24.64.72A1.11,1.11,0,0,1,54.07,89.27Zm26.21-2a6.24,6.24,0,0,1-4.84,2.2,6.3,6.3,0,0,1-4.81-2.21,8.06,8.06,0,0,1-1.5-2.46,8.16,8.16,0,0,1-.49-2.89,7.57,7.57,0,0,1,2-5.36,6.93,6.93,0,0,1,2.23-1.62,6.66,6.66,0,0,1,2.71-.54,6.1,6.1,0,0,1,4.76,2.16A7.35,7.35,0,0,1,81.77,79a8.49,8.49,0,0,1,.49,3A7.64,7.64,0,0,1,80.28,87.26Zm29-12.32c-.6,0-1,.11-1.09.28l-.09.37v9a5.25,5.25,0,0,1-1.19,3.74,4.64,4.64,0,0,1-3.57,1.27,5.69,5.69,0,0,1-2.18-.39,4.41,4.41,0,0,1-1.62-1.12c-.68-.74-1-2.07-1-4V76c0-.46-.06-.74-.19-.83A4.38,4.38,0,0,0,97,74.94c-.15,0-.23-.07-.23-.17s.12-.18.37-.18H103c.24,0,.37.06.37.19s-.22.2-.65.2c-.62,0-1,.11-1,.35l0,.44.07,10.07A4.59,4.59,0,0,0,102,87a2.25,2.25,0,0,0,1.41,1.37,3.59,3.59,0,0,0,2.39,0,2,2,0,0,0,.86-.71,7,7,0,0,0,.83-4V75.86c0-.38-.11-.62-.32-.72a1.67,1.67,0,0,0-.81-.13c-.5,0-.75-.11-.75-.26s.1-.16.3-.16l1.84,0,.37,0h1.16c.44,0,.65.06.65.18S109.72,74.93,109.25,74.94Zm25.56,4.66a3.51,3.51,0,0,1-1,1.3A5.48,5.48,0,0,1,130.2,82l-1.6-.16v5.41a3.27,3.27,0,0,0,.16,1.38,2.17,2.17,0,0,0,1.18.24c.38,0,.56.05.56.18s-.11.17-.33.17l-6.36,0-.13-.11c0-.11.12-.17.35-.17a2.66,2.66,0,0,0,1.23-.18c.13-.11.2-.44.2-1V76.89a6.62,6.62,0,0,0-.11-1.63c-.07-.19-.43-.28-1.07-.28-.38,0-.56-.06-.56-.18s.17-.17.53-.17l6,0a6.43,6.43,0,0,1,3.31.67A3,3,0,0,1,135.14,78,3.89,3.89,0,0,1,134.81,79.6Z"/></svg>