<?xml version="1.0" encoding="UTF-8"?>
<svg id="_Слой_1" data-name="Слой 1" xmlns="http://www.w3.org/2000/svg" viewBox="0 0 70.48 56.75">
  <defs>
    <style>
      .cls-1 {
        fill: #fff;
      }
    </style>
  </defs>
  <path class="cls-1" d="M57.99,46.17c0-.91,.58-1.64,1.51-1.64s1.48,.7,1.48,1.64-.59,1.64-1.48,1.64-1.51-.73-1.51-1.64h0Zm3.93,0v-4.37h-.97v2.54c-.33-.44-.88-.71-1.57-.71-1.36,0-2.39,1.06-2.39,2.55s1.04,2.55,2.39,2.55c.69,0,1.24-.27,1.57-.71v.59h.97v-2.43h0Zm-13.72,0c0-.91,.58-1.64,1.51-1.64s1.48,.7,1.48,1.64-.59,1.64-1.48,1.64-1.51-.73-1.51-1.64h0Zm3.93,0v-2.42h-.97v.59c-.33-.44-.88-.71-1.57-.71-1.36,0-2.4,1.06-2.4,2.55s1.04,2.55,2.4,2.55c.69,0,1.24-.27,1.57-.71v.59h.97v-2.43h0Zm3.73-2.55c-.61,0-1.04,.28-1.32,.71v-.59h-.96v4.85h.97v-2.73c0-.8,.39-1.32,1.07-1.32,.21,0,.44,.03,.66,.12l.32-.91c-.23-.09-.54-.13-.75-.13h0Zm-37.44,2.55c0-.91,.58-1.64,1.51-1.64s1.48,.7,1.48,1.64-.59,1.64-1.48,1.64-1.51-.73-1.51-1.64h0Zm3.93,0v-2.42h-.97v.59c-.34-.44-.88-.71-1.57-.71-1.36,0-2.39,1.06-2.39,2.55s1.04,2.55,2.39,2.55c.69,0,1.24-.27,1.57-.71v.59h.97v-2.43h0Zm13.13-1.64c.72,0,1.21,.47,1.28,1.23h-2.62c.09-.71,.56-1.23,1.34-1.23h0Zm.02-.9c-1.42,0-2.39,1.02-2.39,2.54s1.02,2.56,2.47,2.56c.73,0,1.4-.18,1.99-.68l-.52-.72c-.4,.32-.92,.51-1.41,.51-.68,0-1.37-.39-1.49-1.26h3.62c.01-.13,.02-.26,.02-.41-.01-1.51-.92-2.54-2.28-2.54h0Zm6.82,2.55c0,1.47,.98,2.55,2.55,2.55,.73,0,1.22-.16,1.75-.58l-.51-.76c-.4,.28-.81,.44-1.27,.44-.84-.01-1.5-.67-1.5-1.64s.66-1.63,1.5-1.64c.46,0,.87,.15,1.27,.44l.51-.76c-.53-.42-1.02-.58-1.75-.58-1.56,0-2.55,1.08-2.55,2.55h0Zm-14.71-2.04c-.51-.34-1.21-.51-1.98-.51-1.23,0-1.98,.58-1.98,1.54,0,.79,.55,1.27,1.63,1.42l.5,.07c.58,.08,.89,.28,.89,.56,0,.38-.43,.62-1.15,.62-.76,0-1.26-.23-1.61-.51l-.5,.76c.72,.53,1.58,.63,2.1,.63,1.4,0,2.17-.65,2.17-1.57,0-.85-.59-1.29-1.65-1.44l-.5-.07c-.46-.06-.86-.2-.86-.53,0-.35,.39-.6,.96-.6,.62,0,1.22,.23,1.51,.42l.46-.79h0Zm13.61-.51c-.61,0-1.05,.28-1.32,.71v-.59h-.96v4.85h.97v-2.73c0-.8,.39-1.32,1.08-1.32,.21,0,.44,.03,.66,.12l.32-.91c-.23-.09-.54-.13-.75-.13h0Zm-9,.12h-1.77v-1.47h-.99v1.47h-1.03v.88h1.03v2.29c0,1.13,.4,1.8,1.64,1.8,.46,0,.98-.14,1.32-.37l-.31-.86c-.31,.18-.66,.27-.93,.27-.53,0-.74-.33-.74-.81v-2.31h1.77v-.88h0Zm-15.81,4.85v-3.05c0-1.15-.69-1.91-1.87-1.92-.62-.01-1.26,.18-1.7,.86-.33-.54-.86-.86-1.6-.86-.52,0-1.07,.14-1.46,.71v-.59h-.97v4.85h.98v-2.78c0-.84,.51-1.29,1.23-1.29s1.1,.46,1.1,1.28v2.79h.99v-2.78c0-.84,.53-1.29,1.23-1.29s1.11,.46,1.11,1.28v2.79h.98Z"/>
  <g>
    <path class="cls-1" d="M25.23,39.55c.67,.01,1.34-.05,2-.13,2.47-.3,4.73-1.16,6.82-2.47,.17-.11,.19-.18,.03-.32-.32-.28-.64-.56-.94-.85-3.29-3.16-5.02-7.07-5.41-11.58-.17-2.01,.05-4,.57-5.96,.95-3.6,2.84-6.61,5.65-9.05,.3-.26,.3-.29-.03-.5-3.36-2.11-7.03-2.93-10.94-2.39-4.69,.64-8.54,2.84-11.34,6.68-2.61,3.57-3.69,7.59-3.12,11.99,.47,3.71,2.05,6.94,4.68,9.59,3.3,3.33,7.35,4.93,12.03,4.98Z"/>
    <path class="cls-1" d="M45.58,39.55c.66,.04,1.32-.05,1.97-.08,.3-.01,.6-.07,.89-.13,4.25-.76,7.8-2.74,10.47-6.17,2.85-3.67,4.03-7.83,3.45-12.45-.45-3.54-1.9-6.68-4.37-9.25-3.93-4.09-8.77-5.81-14.42-5.17-2.41,.28-4.62,1.14-6.67,2.42-.26,.16-.23,.26-.02,.43,.62,.51,1.2,1.07,1.73,1.68,3.45,3.96,4.94,8.57,4.5,13.8-.16,1.87-.63,3.66-1.36,5.39-1.08,2.58-2.72,4.75-4.86,6.54-.23,.19-.23,.28,.03,.44,2.65,1.67,5.54,2.52,8.67,2.55Z"/>
    <path class="cls-1" d="M41.83,23.12c-.04-1.26-.11-2.33-.32-3.38-.77-3.86-2.61-7.08-5.63-9.62-.44-.37-.44-.37-.88,0-1.56,1.32-2.86,2.84-3.84,4.64-1.39,2.55-2.08,5.28-2.1,8.17,0,1.82,.31,3.61,.9,5.35,1.03,3.02,2.79,5.51,5.27,7.51,.16,.13,.29,.12,.44,0,.25-.22,.51-.43,.76-.66,3.6-3.27,5.27-7.4,5.41-12.01Z"/>
  </g>
</svg>