<?xml version="1.0" encoding="UTF-8"?>
<svg id="_Слой_1" data-name="Слой 1" xmlns="http://www.w3.org/2000/svg" viewBox="0 0 91.33 56.75">
  <defs>
    <style>
      .cls-1 {
        fill: #fff;
        fill-rule: evenodd;
      }
    </style>
  </defs>
  <path class="cls-1" d="M7.41,16.24h7.08c2.25,0,3.27,1.62,3.83,3.48l2.99,9.86h.59l2.99-9.86c.56-1.84,1.57-3.46,3.78-3.48h0s.05,0,.05,0h6.96v22.38h-7.01v-13.28h-.49l-4.14,13.28h-4.89l-4.14-13.28h-.6v13.28H7.41V16.24h0Zm63.86,15.28h7.59c3.29,0,6.11-2.11,7.18-5.04h-21.78v12.14h7.01v-7.11h0Zm-32.64-15.28h7.01v13.28h.91c1.43-3.26,2.83-6.52,4.24-9.8,.96-2.23,1.9-3.2,4.27-3.48h6.02v22.38h-7.01v-13.28h-.69c-1.43,3.26-2.83,6.52-4.24,9.8-.92,2.14-1.93,3.27-4.27,3.48h-6.24V16.24h0Z"/>
  <path class="cls-1" d="M86.32,25.47c.11-.51,.17-1.05,.17-1.59h0c0-4.2-3.44-7.64-7.64-7.64h-15.59l.24,1.01c1.08,4.52,5.67,8.22,10.19,8.22h12.63Z"/>
</svg>