<svg xmlns="http://www.w3.org/2000/svg" viewBox="0 0 32 32"><defs><style>.cls-1{fill:#fff;}.cls-2{fill:#031746;}</style></defs><title>ok</title><g id="ELIPSE"><circle class="cls-1" cx="15.98" cy="16.04" r="15.98"/></g><g id="OK"><path class="cls-2" d="M15.11,19.62a6.85,6.85,0,0,1-3.67-1.31,3,3,0,0,1-.39-.32,1,1,0,0,1-.14-1.48,1,1,0,0,1,1.39-.31,2.38,2.38,0,0,1,.3.18,6,6,0,0,0,6.68.06,1.84,1.84,0,0,1,.65-.34,1,1,0,0,1,1.17.47,1,1,0,0,1-.08,1.3,5.38,5.38,0,0,1-1.94,1.26,9,9,0,0,1-2.2.49l.24.26L20.18,23a1,1,0,0,1,.23,1.19,1.21,1.21,0,0,1-1.14.71,1.06,1.06,0,0,1-.71-.37c-.77-.77-1.56-1.53-2.31-2.32-.22-.23-.33-.19-.52,0-.78.8-1.56,1.58-2.36,2.37a1,1,0,0,1-1.19.21,1.18,1.18,0,0,1-.69-1.11,1.08,1.08,0,0,1,.37-.75c1-1,2-2,3-3A2.8,2.8,0,0,0,15.11,19.62Z"/><path class="cls-2" d="M16,16.11a4.49,4.49,0,1,1,4.51-4.43A4.5,4.5,0,0,1,16,16.11Zm2.22-4.49A2.19,2.19,0,1,0,16,13.82,2.18,2.18,0,0,0,18.17,11.62Z"/></g></svg>