<?xml version="1.0" encoding="UTF-8"?>
<svg id="_Слой_1" data-name="Слой 1" xmlns="http://www.w3.org/2000/svg" viewBox="0 0 133.64 71.75">
  <defs>
    <style>
      .cls-1 {
        fill: #fff;
      }

      .cls-1, .cls-2, .cls-3 {
        fill-rule: evenodd;
      }

      .cls-2 {
        fill: #fc0;
      }

      .cls-3 {
        fill: #cc1626;
      }
    </style>
  </defs>
  <polygon class="cls-3" points="21.18 22.95 110.14 22.95 110.14 51.25 21.18 51.25 21.18 22.95 21.18 22.95"/>
  <path class="cls-1" d="M32.92,37.19l4.04-4.04-4.04-4.04h3.02l4.04,4.04-4.04,4.04h-3.02Zm-5.33,0l4.04-4.04-4.04-4.04h3.02l4.04,4.04-4.04,4.04h-3.02Z"/>
  <path class="cls-1" d="M65.14,45.14c.78,0,1.39-.39,1.39-1.17,0-.69-.62-.93-1.16-1.1-.02,0-.05-.01-.07-.02-.41-.13-.77-.25-.77-.5,0-.23,.19-.39,.52-.39,.31,0,.69,.13,1.05,.35l.34-.61c-.4-.26-.91-.42-1.37-.42-.74,0-1.33,.43-1.33,1.14s.62,.95,1.17,1.12c.02,0,.04,.01,.06,.02,.41,.12,.77,.22,.77,.49s-.21,.42-.58,.42-.82-.16-1.22-.46l-.38,.58c.47,.37,1.05,.56,1.58,.56h0Zm3.97,.01c.69,0,1.17-.28,1.53-.7l-.5-.45c-.3,.29-.59,.45-1.01,.45-.55,0-.98-.34-1.07-.95h2.74s.01-.18,.01-.24c0-1.07-.6-2.01-1.79-2.01-1.07,0-1.82,.88-1.82,1.94,0,1.17,.83,1.95,1.92,1.95h0Zm-1.07-2.21c.08-.58,.45-.98,.97-.98,.57,0,.89,.43,.95,.98h-1.92Zm5.35,2.21c.73,0,1.16-.29,1.53-.7l-.52-.51c-.27,.28-.57,.47-.97,.47-.66,0-1.12-.54-1.12-1.2s.45-1.2,1.07-1.2c.43,0,.71,.19,.97,.47l.53-.57c-.35-.38-.79-.64-1.49-.64-1.12,0-1.94,.89-1.94,1.95s.82,1.94,1.93,1.94h0Zm3.6,0c.58,0,.93-.3,1.17-.66v.58h.86v-3.73h-.86v2.11c0,.58-.35,.93-.84,.93s-.8-.33-.8-.91v-2.12h-.86v2.38c0,.87,.49,1.44,1.33,1.44h0Zm3.1-.08h.86v-1.42c0-.99,.52-1.48,1.27-1.48h.05v-.91c-.66-.03-1.09,.35-1.32,.91v-.84h-.86v3.73h0Zm4.5,.09c.69,0,1.17-.28,1.53-.7l-.5-.45c-.3,.29-.59,.45-1.01,.45-.55,0-.98-.34-1.07-.95h2.74s.01-.18,.01-.24c0-1.07-.6-2.01-1.79-2.01-1.07,0-1.82,.88-1.82,1.94,0,1.17,.83,1.95,1.92,1.95h0Zm-1.07-2.21c.08-.58,.45-.98,.97-.98,.57,0,.89,.43,.95,.98h-1.92Zm5.17,2.21c.61,0,1-.31,1.27-.7v.62h.86v-5.16h-.86v2.01c-.27-.35-.66-.66-1.27-.66-.89,0-1.73,.7-1.73,1.94s.86,1.95,1.73,1.95h0Zm.21-.74c-.58,0-1.07-.47-1.07-1.2,0-.76,.49-1.21,1.07-1.21s1.08,.47,1.08,1.2-.51,1.21-1.08,1.21h0Zm7.24,.74c.89,0,1.74-.7,1.74-1.94s-.86-1.95-1.74-1.95c-.6,0-.99,.31-1.27,.7v-2.05h-.86v5.16h.86v-.58c.26,.35,.65,.66,1.27,.66h0Zm-.2-.74c-.58,0-1.09-.47-1.09-1.2s.51-1.21,1.09-1.21,1.07,.47,1.07,1.2-.48,1.21-1.07,1.21h0Zm3.4,1.82c.6,0,.93-.28,1.23-1.05l1.49-3.84h-.89l-.97,2.77-1.06-2.77h-.91l1.56,3.73c-.14,.33-.29,.43-.53,.43-.18,0-.35-.06-.5-.14l-.29,.64c.26,.14,.52,.23,.88,.23h0Z"/>
  <path class="cls-1" d="M52.04,35.98c.33,0,.65-.09,.92-.26,.55-.33,.85-.91,.85-1.55s-.32-1.26-.9-1.59c-.27-.15-.57-.23-.87-.23s-.61,.08-.88,.24c-.57,.33-.88,.93-.88,1.58s.29,1.21,.83,1.54c.28,.17,.6,.26,.93,.26h0Zm-7.97-2.5v-2.91h1.56c.4,0,.74,.15,1.03,.43h0c.29,.28,.43,.62,.43,1.02s-.15,.74-.43,1.03c-.28,.28-.63,.43-1.03,.43h-.28s-1.28,0-1.28,0h0Zm0,1.45h1.56c.39,0,.77-.07,1.13-.23,.35-.15,.66-.36,.92-.62,.27-.27,.47-.58,.62-.92,.16-.36,.23-.74,.23-1.13s-.07-.77-.23-1.13c-.15-.34-.36-.65-.62-.92-.27-.27-.58-.47-.92-.62-.36-.16-.74-.23-1.13-.23h-3.01s0,8.06,0,8.06h1.45s0-2.24,0-2.24h0Zm9.83,1.55c-.51,.54-1.23,.83-1.97,.83-1.75,0-3.03-1.41-3.03-3.14,0-1.72,1.27-3.15,3.03-3.15,.75,0,1.46,.3,1.97,.84v-.77h1.37v6.15s-1.37,0-1.37,0v-.75h0Zm7.19-.1c-.44,.53-1.12,.78-1.81,.78-1.79,0-2.69-1.24-2.69-2.95v-3.12s1.38,0,1.38,0v3.05c0,1.02,.41,1.69,1.49,1.69,1.16,0,1.64-.83,1.64-1.91v-2.83s1.37,0,1.37,0v5.29c0,1.84-1.14,3.11-3.02,3.11-.97,0-1.9-.31-2.65-.94l-.08-.06,.8-.85,.07,.04c.59,.36,1.17,.54,1.86,.54,1.03,0,1.64-.55,1.64-1.59v-.24h0Z"/>
  <path class="cls-2" d="M84.52,32.75h0s.04-.08,.04-.08c0,0,0-.02,.01-.03,0,0,0,0,0,0l.04-.08h0s.01-.02,.01-.02v-.02s.03-.03,.03-.03h0s.03-.04,.04-.06h0s.01-.03,.02-.04h0s.02-.04,.02-.04h0s.05-.07,.07-.11h0s.02-.02,.03-.04h0c.58-.75,1.47-1.2,2.42-1.2h.12c1.72,.04,2.96,1.43,2.96,3.14,0,1.72-1.27,3.15-3.03,3.15-.68,0-1.34-.29-1.78-.8v2.9h-1.37v-5.39s0,0,0,0c.02-.38,.1-.76,.25-1.11h0s.01-.04,.01-.04v-.02s.02-.03,.02-.03v-.03s.03-.03,.03-.03h0Zm-20.67-3.65h1.45v8.06s-1.45,0-1.45,0v-8.06h0Zm3.44,4.04l3.36,4.04h-1.91s-3.24-4.04-3.24-4.04l3.23-4.04h1.91s-3.35,4.04-3.35,4.04h0Zm4.59,1.41c.05,.96,.82,1.46,1.76,1.46,.65,0,1.3-.18,1.86-.51l.07-.04,.76,.82-.08,.06c-.76,.58-1.65,.93-2.61,.93-1.84,0-3.17-1.29-3.17-3.14,0-1.81,1.27-3.15,3.1-3.15,1.24,0,2.23,.59,2.72,1.73,.21,.49,.27,1.25,.11,1.75l-.02,.07h-4.5Zm6.77,0c.05,.96,.82,1.46,1.76,1.46,.65,0,1.3-.18,1.86-.51l.07-.04,.76,.82-.08,.06c-.76,.58-1.65,.93-2.61,.93-1.84,0-3.17-1.29-3.17-3.14,0-1.81,1.27-3.15,3.1-3.15,1.24,0,2.23,.59,2.72,1.73,.21,.49,.27,1.25,.11,1.75l-.02,.07h-4.5Zm13.95,0c.05,.96,.82,1.46,1.76,1.46,.65,0,1.3-.18,1.86-.51l.07-.04,.76,.82-.08,.06c-.76,.58-1.65,.93-2.61,.93-1.84,0-3.17-1.29-3.17-3.14s1.27-3.15,3.1-3.15c1.24,0,2.23,.59,2.72,1.73,.21,.49,.27,1.25,.11,1.75l-.02,.07h-4.5Zm-7.05-.4c0,2.5,3.44,2.29,3.44,0,0-2.29-3.44-2.5-3.44,0h0Zm-13.59-.69h3.16c-.02-.11-.06-.21-.11-.31-.27-.57-.81-.88-1.43-.88-.69,0-1.34,.37-1.57,1.04-.02,.05-.03,.1-.04,.14h0Zm6.77,0h3.16c-.02-.11-.06-.21-.11-.31-.27-.57-.81-.88-1.43-.88-.69,0-1.34,.37-1.57,1.04-.02,.05-.03,.1-.04,.14h0Zm13.95,0h3.16c-.02-.11-.06-.21-.11-.31-.27-.57-.81-.88-1.43-.88-.69,0-1.34,.37-1.57,1.04-.02,.05-.03,.1-.04,.15h0Zm6.91-1.57c.55-.61,1.32-.88,2.15-.88h.32v1.37h-.59c-1.32,0-1.86,.9-1.86,2.12v2.7h-1.41v-6.13s1.4,0,1.4,0v.81h0Z"/>
</svg>