<svg xmlns="http://www.w3.org/2000/svg" viewBox="0 0 32 32"><defs><style>.cls-1{fill:#fff;}.cls-2{fill:#031746;}</style></defs><title>twitter</title><g id="ELIPSE"><circle class="cls-1" cx="15.98" cy="16.04" r="15.98"/></g><g id="Слой_6" data-name="Слой 6"><path class="cls-2" d="M24.32,10.84a7.28,7.28,0,0,1-2,.54,3.34,3.34,0,0,0,1.5-1.88,6.8,6.8,0,0,1-2.16.82A3.45,3.45,0,0,0,19.2,9.24a3.41,3.41,0,0,0-3.41,3.41,3.33,3.33,0,0,0,.08.78,9.68,9.68,0,0,1-7-3.57,3.52,3.52,0,0,0-.46,1.73,3.39,3.39,0,0,0,1.51,2.83A3.34,3.34,0,0,1,8.35,14v0a3.42,3.42,0,0,0,2.73,3.35,3.24,3.24,0,0,1-.89.11,2.81,2.81,0,0,1-.65-.06,3.45,3.45,0,0,0,3.19,2.38A6.85,6.85,0,0,1,8.5,21.27a7.38,7.38,0,0,1-.82,0,9.71,9.71,0,0,0,14.94-8.18c0-.15,0-.29,0-.44A7,7,0,0,0,24.32,10.84Z"/></g></svg>