<?xml version="1.0" encoding="UTF-8"?>
<svg id="_Слой_1" data-name="Слой 1" xmlns="http://www.w3.org/2000/svg" viewBox="0 0 133.64 71.75">
  <defs>
    <style>
      .cls-1 {
        fill: #005098;
      }

      .cls-1, .cls-2 {
        fill-rule: evenodd;
      }

      .cls-2 {
        fill: #f7a600;
      }
    </style>
  </defs>
  <polygon class="cls-1" points="55.13 45.5 58 28.73 62.58 28.73 59.71 45.5 55.13 45.5 55.13 45.5"/>
  <path class="cls-1" d="M76.29,29.15c-.9-.32-2.34-.69-4.09-.69-4.53,0-7.7,2.27-7.72,5.53-.02,2.41,2.27,3.75,4,4.56,1.78,.83,2.38,1.34,2.36,2.08,0,1.13-1.41,1.64-2.73,1.64-1.83,0-2.8-.25-4.3-.88l-.6-.28-.62,3.75c1.06,.49,3.03,.88,5.09,.9,4.81,0,7.91-2.24,7.96-5.74,.02-1.9-1.2-3.35-3.84-4.56-1.6-.76-2.57-1.27-2.57-2.06,0-.72,.83-1.46,2.61-1.46,1.5-.02,2.59,.3,3.42,.65l.42,.19,.62-3.63h0Z"/>
  <path class="cls-1" d="M88.02,28.75h-3.54c-1.09,0-1.92,.3-2.41,1.39l-6.78,15.38h4.79s.79-2.08,.97-2.52h5.85c.14,.58,.56,2.52,.56,2.52h4.23l-3.68-16.77h0Zm-5.64,10.8c.37-.95,1.83-4.67,1.83-4.67-.05,.05,.37-.97,.6-1.6l.3,1.43s.88,4,1.06,4.83h-3.79Z"/>
  <path class="cls-1" d="M51.32,28.75l-4.49,11.42-.46-2.31c-.83-2.68-3.45-5.57-6.34-7.03l4.09,14.66h4.83l7.19-16.74h-4.83Z"/>
  <path class="cls-2" d="M42.69,28.73h-7.38l-.05,.37c5.71,1.39,9.53,4.74,11.1,8.77l-1.62-7.7c-.28-1.06-1.06-1.39-2.06-1.43h0Z"/>
</svg>