<svg xmlns="http://www.w3.org/2000/svg" viewBox="0 0 32 32"><defs><style>.cls-1{fill:#fff;}.cls-2{fill:#031746;}</style></defs><title>vk</title><g id="ELIPSE"><circle class="cls-1" cx="15.98" cy="16.04" r="15.98"/></g><g id="VK"><path class="cls-2" d="M24.64,20.85a7.62,7.62,0,0,0-1.75-2c-1.48-1.37-1.28-1.14.5-3.52,1.08-1.44,1.52-2.32,1.38-2.7s-.92-.26-.92-.26H21.2a.71.71,0,0,0-.35.06.78.78,0,0,0-.23.29,16,16,0,0,1-1,2.07c-1.18,2-1.65,2.11-1.85,2-.44-.29-.33-1.16-.33-1.79,0-1.94.29-2.75-.58-3a4.24,4.24,0,0,0-1.23-.12,5.75,5.75,0,0,0-2.2.22c-.31.15-.54.48-.4.5a1.2,1.2,0,0,1,.79.39,2.57,2.57,0,0,1,.26,1.2s.15,2.29-.37,2.57c-.35.2-.85-.2-1.9-2a16.07,16.07,0,0,1-.94-2,.86.86,0,0,0-.22-.3,1.15,1.15,0,0,0-.41-.16l-2.52,0a.88.88,0,0,0-.52.17c-.12.15,0,.45,0,.45s2,4.61,4.21,6.94a6.05,6.05,0,0,0,4.37,2h1.06a.84.84,0,0,0,.48-.21.74.74,0,0,0,.14-.46s0-1.41.64-1.62,1.48,1.37,2.36,2a1.66,1.66,0,0,0,1.17.36l2.35,0S25.23,21.82,24.64,20.85Z"/></g></svg>