<svg id="Слой_1" data-name="Слой 1" xmlns="http://www.w3.org/2000/svg" viewBox="0 0 64 64"><defs><style>.cls-1{fill:#df3131;}.cls-2{fill:#fff;}</style></defs><title>scroll-down-icon</title><rect class="cls-1" x="11.29" width="39.02" height="63.87" rx="19.51"/><path class="cls-2" d="M30.8,31.39a.94.94,0,0,1-.68-.28l-5.66-5.66a1,1,0,0,1,0-1.35.94.94,0,0,1,1.35,0l5,5,5-5a1,1,0,1,1,1.36,1.35l-5.67,5.66A.92.92,0,0,1,30.8,31.39Z"/><path class="cls-2" d="M30.8,39.06h0a1,1,0,0,1-.68-.28l-5.66-5.67a1,1,0,0,1,1.35-1.35l5,5,5-5a1,1,0,0,1,1.36,0,1,1,0,0,1,0,1.35l-5.67,5.67A1,1,0,0,1,30.8,39.06Z"/><path class="cls-2" d="M30.8,46.72a.94.94,0,0,1-.68-.28l-5.66-5.66a1,1,0,0,1,0-1.35.94.94,0,0,1,1.35,0l5,5,5-5a1,1,0,0,1,1.36,1.35l-5.67,5.66A.92.92,0,0,1,30.8,46.72Z"/><path class="cls-2" d="M30.8,31.39a1,1,0,0,1-1-.95V18a1,1,0,1,1,1.91,0V30.44A1,1,0,0,1,30.8,31.39Z"/></svg>