<svg id="Phone" xmlns="http://www.w3.org/2000/svg" viewBox="0 0 32 32"><defs><style>.cls-1{fill:#fff;}</style></defs><title>tel</title><path class="cls-1" d="M31.35,25.31l-5-4.95a2.57,2.57,0,0,0-3.64.07l-2.5,2.49-.49-.27a25.17,25.17,0,0,1-6-4.34,25,25,0,0,1-4.35-6l-.27-.48,1.68-1.67.82-.83a2.58,2.58,0,0,0,.07-3.64L6.76.72A2.57,2.57,0,0,0,3.12.79L1.73,2.19l0,0a8.4,8.4,0,0,0-1.15,2A8.5,8.5,0,0,0,.1,6.32c-.65,5.42,1.82,10.37,8.55,17.1C17.94,32.71,25.43,32,25.76,32a8.9,8.9,0,0,0,2.06-.52,7.85,7.85,0,0,0,2-1.15l0,0L31.29,29A2.58,2.58,0,0,0,31.35,25.31Z"/></svg>