<svg xmlns="http://www.w3.org/2000/svg" width="1022.208" height="32" viewBox="0 0 1022.208 32"><defs><style>.a,.b{fill:#fff;}.b{opacity:0.3;}</style></defs><g transform="translate(723 -1291)"><path class="a" d="M10.837,32a.941.941,0,0,1-.781-1.467L19.835,16,10.056,1.467A.942.942,0,0,1,11.619.415L22.1,16,11.619,31.585A.941.941,0,0,1,10.837,32Z" transform="translate(277.104 1291)"/><path class="b" d="M10.837,32a.941.941,0,0,1-.781-1.467L19.835,16,10.056,1.467A.942.942,0,0,1,11.619.415L22.1,16,11.619,31.585A.941.941,0,0,1,10.837,32Z" transform="translate(-700.896 1323) rotate(180)"/></g></svg>