<svg xmlns="http://www.w3.org/2000/svg" width="32" height="32" viewBox="0 0 32 32"><defs><style>.a{fill:#fff;}</style></defs><g transform="translate(-1.592 -1.359)"><path class="a" d="M30.688,32.832H11.483a2.379,2.379,0,0,1-2.376-2.377V11.25a2.379,2.379,0,0,1,2.376-2.376H30.688a2.379,2.379,0,0,1,2.377,2.376V30.455A2.379,2.379,0,0,1,30.688,32.832ZM11.483,11.014a.236.236,0,0,0-.235.235V30.455a.236.236,0,0,0,.235.236H30.688a.237.237,0,0,0,.236-.236V11.25a.236.236,0,0,0-.236-.235Z" transform="translate(0.527 0.527)"/><path class="a" d="M7.275,25.317H3.969a2.379,2.379,0,0,1-2.377-2.376V3.736A2.379,2.379,0,0,1,3.969,1.359H23.174A2.379,2.379,0,0,1,25.55,3.736V6.793a1.07,1.07,0,0,1-2.14,0V3.736a.236.236,0,0,0-.235-.236H3.969a.237.237,0,0,0-.236.236V22.941a.236.236,0,0,0,.236.235H7.275a1.07,1.07,0,1,1,0,2.14Z"/><g transform="translate(14.577 16.77)"><path class="a" d="M18.63,18.931l-4.669,4.523a.767.767,0,0,0,.534,1.317h9.338a.767.767,0,0,0,.534-1.317L19.7,18.931A.766.766,0,0,0,18.63,18.931Z" transform="translate(-13.726 -15.553)"/><path class="a" d="M23.438,20.828l-2.574,2.493a.767.767,0,0,0,.534,1.317h5.146a.767.767,0,0,0,.534-1.317L24.5,20.828A.767.767,0,0,0,23.438,20.828Z" transform="translate(-13.242 -15.42)"/><circle class="a" cx="1.403" cy="1.403" r="1.403" transform="translate(9.473)"/></g></g></svg>