<svg xmlns="http://www.w3.org/2000/svg" width="26.115" height="24" viewBox="0 0 26.115 24"><defs><style>.a{fill:#fff;}</style></defs><path class="a" d="M14,1.627l3.713,7.257a.412.412,0,0,0,.313.22l8.3,1.164a.4.4,0,0,1,.23.685L20.547,16.6a.392.392,0,0,0-.119.356l1.418,7.977a.413.413,0,0,1-.6.423L13.816,21.59a.427.427,0,0,0-.387,0L6,25.355a.413.413,0,0,1-.6-.423l1.418-7.977A.392.392,0,0,0,6.7,16.6L.691,10.951a.4.4,0,0,1,.23-.685L9.223,9.1a.412.412,0,0,0,.313-.22l3.713-7.257A.423.423,0,0,1,14,1.627Z" transform="translate(-0.565 -1.403)"/></svg>